# xmcd
#
# Track frame offsets: 
#        150
#        27784
#        41305
#        59175
#        68588
#        93138
#        130747
#        155068
#
# Disc length: 2398 seconds
#
# Revision: 0
# Processed by: cddbd v1.5.2PL0 Copyright (c) Steve Scherf et al.
# Submitted via: ExactAudioCopy v1.0b3
#
DISCID=62095c08
DTITLE=Kalle Sändare - Boxen e' klar - CD 15 - Två sidor
DYEAR=2014
DGENRE=Comedy
TTITLE0=Kaffepetter
TTITLE1=Värens salva
TTITLE2=Norsk opera
TTITLE3=Gotland runt
TTITLE4=Studsmatta
TTITLE5=Järnföreningen
TTITLE6=Dr Kokos-Boll
TTITLE7=Maskeradernas skuggor
EXTD=
EXTT0=
EXTT1=
EXTT2=
EXTT3=
EXTT4=
EXTT5=
EXTT6=
EXTT7=
PLAYORDER=
